<svg width="102" height="32" viewBox="0 0 102 32" fill="none" xmlns="http://www.w3.org/2000/svg">
<path d="M13.4852 17.6375V18.9645H4.39795V23.8234H12.1901V25.1505H4.39795V31.7645H2.67115V17.6375H13.4852Z" fill="white"/>
<path d="M13.7847 27.6334V20.9124H15.4252V27.3338C15.4252 29.5599 16.785 30.6515 18.6845 30.6515C20.584 30.6515 22.0734 29.4314 22.0734 27.1197V20.9124H23.7354V31.7645H22.095V30.2448H21.8791C21.1236 31.3579 19.8285 31.9786 18.296 31.9786C15.6626 31.9786 13.7847 30.6087 13.7847 27.6334Z" fill="white"/>
<path d="M30.8207 20.6769C33.4541 20.6769 35.332 22.0468 35.332 25.0221V31.7645H33.6915V25.3217C33.6915 23.0957 32.3101 22.004 30.4322 22.004C28.5543 22.004 27.0433 23.2027 27.0433 25.5358V31.7645H25.3813V20.9124H27.0217V22.4107H27.2376C27.9931 21.2977 29.2666 20.6769 30.8207 20.6769Z" fill="white"/>
<path d="M41.8803 20.6983C43.7366 20.6983 45.1828 21.4261 45.9815 22.7318H46.2405V17.6375H47.881V31.7645H46.2405V30.0308H45.9815C45.1397 31.2936 43.7151 32 41.8803 32C38.4699 32 36.6352 29.7311 36.6352 26.392C36.6352 23.0528 38.4699 20.6983 41.8803 20.6983ZM42.312 21.9826C39.8513 21.9826 38.2972 23.4381 38.2972 26.392C38.2972 29.3458 39.8513 30.7371 42.312 30.7371C44.5569 30.7371 46.2405 29.089 46.2405 26.4134C46.2405 23.7378 44.5569 21.9826 42.312 21.9826Z" fill="white"/>
<path d="M49.2246 26.3706C49.2246 23.0742 51.0809 20.6983 54.7936 20.6983C58.1608 20.6983 60.0387 22.7104 60.0387 25.9211C60.0387 26.1779 60.0171 26.3706 59.9956 26.5632H50.8651C50.9299 29.4314 52.3545 30.8013 54.8583 30.8013C57.0384 30.8013 58.1392 29.7739 58.463 28.2542H60.0387C59.715 30.1592 58.2472 31.9786 54.7936 31.9786C50.973 31.9786 49.2246 29.5385 49.2246 26.3706ZM58.3983 25.493C58.3335 22.903 56.8657 21.8542 54.8152 21.8542C52.5271 21.8542 51.1457 23.0528 50.8867 25.493H58.3983Z" fill="white"/>
<path d="M66.4063 20.6983C68.2626 20.6983 69.7088 21.4261 70.5075 22.7318H70.7665V17.6375H72.4069V31.7645H70.7665V30.0308H70.5075C69.6656 31.2936 68.241 32 66.4063 32C62.9959 32 61.1611 29.7311 61.1611 26.392C61.1611 23.0528 62.9959 20.6983 66.4063 20.6983ZM66.838 21.9826C64.3773 21.9826 62.8232 23.4381 62.8232 26.392C62.8232 29.3458 64.3773 30.7371 66.838 30.7371C69.0828 30.7371 70.7665 29.089 70.7665 26.4134C70.7665 23.7378 69.0828 21.9826 66.838 21.9826Z" fill="white"/>
<path d="M22.3378 3.43813H25.1546V9.77124C25.1546 11.6415 26.1961 12.6074 27.8366 12.6074C29.6551 12.6074 30.8315 11.4863 30.8315 9.22007V3.43813H33.6699V14.5873H30.8531V12.9819H30.5644C29.7873 14.1244 28.5246 14.8067 26.8167 14.8067C23.9783 14.8067 22.3378 13.2227 22.3378 10.2341V3.43813Z" fill="white"/>
<path d="M34.8085 9.00067C34.8085 5.72308 36.7377 3.17324 40.8631 3.17324C44.9886 3.17324 46.6506 5.63746 46.6506 8.80268C46.6506 9.11037 46.6506 9.37525 46.6074 9.59465H37.6038C37.736 11.9465 38.934 12.9365 40.9306 12.9365C42.6601 12.9365 43.5694 12.1659 43.9012 11.0662H46.629C46.2972 12.9793 44.7215 14.804 40.8631 14.804C36.5623 14.804 34.8085 12.1204 34.8085 8.99799V9.00067ZM43.9444 7.94649C43.8338 6.03345 42.7248 5.02207 40.9063 5.02207C39.0878 5.02207 37.8898 6.01204 37.6254 7.94649H43.9444Z" fill="white"/>
<path d="M47.8486 0.0722408H50.687V4.99799H50.9757C51.7959 3.85552 53.1477 3.24013 54.9447 3.24013C58.6033 3.24013 60.2896 5.76856 60.2896 9.06756C60.2896 12.3666 58.6033 14.895 54.9447 14.895C53.1477 14.895 51.8175 14.2582 50.9757 13.1585H50.687V14.5873H47.8486V0.0722408ZM54.0597 12.7625C56.2991 12.7625 57.4539 11.4649 57.4539 9.08896C57.4539 6.71304 56.3018 5.35117 54.0597 5.35117C51.8175 5.35117 50.6897 6.80134 50.6897 9.08896C50.6897 11.3766 51.8877 12.7625 54.0597 12.7625Z" fill="white"/>
<path d="M61.1638 9.00067C61.1638 5.72308 63.093 3.17324 67.2184 3.17324C71.3439 3.17324 73.0059 5.63746 73.0059 8.80268C73.0059 9.11037 73.0059 9.37525 72.9628 9.59465H63.9591C64.0913 11.9465 65.2893 12.9365 67.2859 12.9365C69.0154 12.9365 69.9247 12.1659 70.2565 11.0662H72.9843C72.6525 12.9793 71.0768 14.804 67.2184 14.804C62.9176 14.804 61.1638 12.1204 61.1638 8.99799V9.00067ZM70.2997 7.94649C70.1891 6.03345 69.0801 5.02207 67.2616 5.02207C65.4431 5.02207 64.2451 6.01204 63.9807 7.94649H70.2997Z" fill="white"/>
<path d="M80.7253 3.34983H81.3458V5.94515H80.3934C78.3077 5.94515 77.045 7.17592 77.045 9.72843V14.5873H74.2066V3.43813H76.956V5.17458H77.2447C77.9111 4.00803 79.0632 3.34983 80.7253 3.34983Z" fill="white"/>
<path d="M89.2783 5.94515H88.3259C86.2402 5.94515 84.9775 7.17592 84.9775 9.72843V14.5873H82.1391V3.43813H84.8885V5.17458H85.1772C85.8436 4.00803 86.9822 3.34983 88.0938 3.34983" fill="white"/>
<path d="M19.7638 12.4013H21.6498V14.5552H20.3412C17.7456 14.5552 16.9038 13.4555 16.9038 11.3659V0.0214047H19.7638V12.4013Z" fill="white"/>
<path d="M13.0293 7.14649V6.8602C14.4701 6.4214 15.4009 5.51973 15.4009 3.6495C15.4009 1.60535 14.2029 0 10.9004 0H2.67384V6.09231H0L2.67384 8.04816V14.5793H10.8573C14.0734 14.5793 15.668 13.1291 15.668 10.6435C15.668 8.48963 14.5159 7.52107 13.0293 7.14649ZM5.55544 2.11104H10.0559C11.7854 2.11104 12.3412 2.74783 12.3412 4.15518C12.3412 5.36455 11.7881 6.08963 10.0127 6.08963H5.55544V3.31505L3.90689 2.10836H5.55544V2.11104ZM10.1665 12.4682H5.55544V9.25485L3.90689 8.04816H10.0559C11.9851 8.04816 12.6272 8.88294 12.6272 10.2689C12.6272 11.6548 12.0067 12.4682 10.1665 12.4682Z" fill="white"/>
<path d="M99.1211 3.43813L95.4166 11.9706L91.9117 3.43813H88.9626L93.9515 14.3893L93.0881 16.2595C93.0881 16.2595 92.8857 16.7759 92.4243 16.7759H90.7488V18.9298H92.0574C93.5333 18.9298 94.4398 18.5739 94.9498 17.8809C95.082 17.7177 95.2007 17.5331 95.3059 17.3164L102 3.43813H99.1184H99.1211Z" fill="white"/>
</svg>