<svg width="150" height="20" viewBox="0 0 150 20" fill="none" xmlns="http://www.w3.org/2000/svg">
<g clip-path="url(#clip0_461_308076)">
<g clip-path="url(#clip1_461_308076)">
<g clip-path="url(#clip2_461_308076)">
<path d="M0 9.07206C0 8.84953 0.0884003 8.63611 0.245754 8.47876C0.403107 8.32141 0.616525 8.233 0.839056 8.233H11.001C11.2235 8.233 11.4369 8.32141 11.5943 8.47876C11.7516 8.63611 11.84 8.84953 11.84 9.07206V10.6448C11.84 10.8674 11.7516 11.0808 11.5943 11.2381C11.4369 11.3955 11.2235 11.4839 11.001 11.4839H4.06942C3.84689 11.4839 3.63347 11.5723 3.47612 11.7296C3.31877 11.887 3.23037 12.1004 3.23037 12.3229V18.5152C3.23037 18.7377 3.14197 18.9511 2.98461 19.1085C2.82726 19.2658 2.61384 19.3542 2.39131 19.3542H0.839056C0.616525 19.3542 0.403107 19.2658 0.245754 19.1085C0.0884003 18.9511 0 18.7377 0 18.5152L0 9.07206ZM0 0.839056C0 0.616525 0.0884003 0.403107 0.245754 0.245754C0.403107 0.0884003 0.616525 0 0.839056 0L12.0638 0C12.2863 0 12.4997 0.0884003 12.6571 0.245754C12.8144 0.403107 12.9028 0.616525 12.9028 0.839056V2.38385C12.9028 2.60638 12.8144 2.8198 12.6571 2.97715C12.4997 3.13451 12.2863 3.22291 12.0638 3.22291H0.839056C0.616525 3.22291 0.403107 3.13451 0.245754 2.97715C0.0884003 2.8198 0 2.60638 0 2.38385L0 0.839056Z" fill="white"/>
<path d="M18.6117 19.385C18.4539 19.3858 18.2991 19.342 18.1651 19.2588C18.0311 19.1756 17.9232 19.0563 17.8539 18.9146C17.7846 18.7728 17.7567 18.6145 17.7733 18.4576C17.7899 18.3007 17.8504 18.1517 17.9479 18.0276L24.0077 10.2468C24.1211 10.0999 24.1826 9.91957 24.1826 9.73401C24.1826 9.54845 24.1211 9.36813 24.0077 9.22125L17.9386 1.3593C17.8405 1.2352 17.7795 1.08591 17.7626 0.928643C17.7457 0.771377 17.7736 0.612541 17.8431 0.470451C17.9126 0.328361 18.0208 0.208805 18.1553 0.125571C18.2898 0.0423375 18.4451 -0.00118445 18.6033 2.45191e-05H20.7587C20.8895 -4.87237e-05 21.0184 0.0304273 21.1353 0.0890219C21.2521 0.147617 21.3537 0.232709 21.4318 0.337512L25.8779 6.27989C25.956 6.38463 26.0575 6.46969 26.1743 6.52828C26.291 6.58687 26.4199 6.61739 26.5505 6.61739C26.6812 6.61739 26.81 6.58687 26.9268 6.52828C27.0436 6.46969 27.1451 6.38463 27.2232 6.27989L31.7112 0.331918C31.7897 0.228396 31.8913 0.144533 32.0078 0.0869374C32.1242 0.0293421 32.2525 -0.000410598 32.3825 2.45191e-05H34.6078C34.7636 -0.000627452 34.9166 0.042126 35.0495 0.123494C35.1824 0.204862 35.29 0.32163 35.3602 0.460712C35.4305 0.599795 35.4606 0.755698 35.4473 0.91095C35.4339 1.0662 35.3776 1.21467 35.2847 1.33972L29.4625 9.22964C29.3551 9.37429 29.2972 9.54966 29.2972 9.72981C29.2972 9.90997 29.3551 10.0853 29.4625 10.23L35.2688 18.0407C35.3625 18.1656 35.4195 18.3142 35.4333 18.4697C35.4472 18.6252 35.4173 18.7815 35.3472 18.921C35.2771 19.0605 35.1694 19.1777 35.0363 19.2593C34.9032 19.341 34.75 19.3839 34.5938 19.3832H32.3769C32.247 19.3833 32.1189 19.3534 32.0025 19.2956C31.8862 19.2379 31.7849 19.1539 31.7065 19.0503L27.2129 13.1201C27.1348 13.0159 27.0334 12.9313 26.9169 12.873C26.8004 12.8148 26.6719 12.7844 26.5417 12.7844C26.4114 12.7844 26.283 12.8148 26.1664 12.873C26.0499 12.9313 25.9486 13.0159 25.8704 13.1201L21.4197 19.0447C21.3415 19.1491 21.24 19.2337 21.1233 19.292C21.0066 19.3502 20.878 19.3805 20.7475 19.3804L18.6117 19.385Z" fill="white"/>
<path d="M59.767 18.1162C59.8374 18.2441 59.8732 18.3882 59.8709 18.5342C59.8685 18.6802 59.8281 18.8231 59.7536 18.9487C59.6792 19.0743 59.5732 19.1783 59.4462 19.2504C59.3192 19.3225 59.1756 19.3602 59.0295 19.3598H57.357C57.2056 19.36 57.0569 19.3192 56.9267 19.2418C56.7965 19.1643 56.6898 19.053 56.6177 18.9198L52.8112 11.9006C52.7392 11.7674 52.6324 11.6561 52.5023 11.5786C52.3721 11.5012 52.2234 11.4604 52.0719 11.4606H46.2414C46.0189 11.4606 45.8055 11.3722 45.6481 11.2148C45.4907 11.0575 45.4023 10.8441 45.4023 10.6215V9.1019C45.4023 8.87936 45.4907 8.66595 45.6481 8.50859C45.8055 8.35124 46.0189 8.26284 46.2414 8.26284H54.7168C55.0907 8.25139 55.4553 8.14418 55.7759 7.95146C56.0805 7.76601 56.3363 7.51026 56.5217 7.20563C56.7445 6.86068 56.8573 6.36657 56.8573 5.73355C56.8573 5.10053 56.7445 4.63252 56.5217 4.28758C56.3351 3.98384 56.0796 3.72833 55.7759 3.54175C55.4551 3.34974 55.0905 3.24288 54.7168 3.2313H46.2414C46.0189 3.2313 45.8055 3.1429 45.6481 2.98554C45.4907 2.82819 45.4023 2.61477 45.4023 2.39224V0.839056C45.4023 0.616525 45.4907 0.403107 45.6481 0.245754C45.8055 0.0884003 46.0189 0 46.2414 0L54.7168 0C55.6548 0.0384368 56.5723 0.285588 57.4027 0.723453C57.7494 0.926326 58.0773 1.1597 58.3825 1.4208C58.7207 1.70756 59.009 2.04843 59.2356 2.42953C59.513 2.86898 59.7212 3.34851 59.8528 3.85127C60.0177 4.46506 60.0956 5.09901 60.084 5.73448C60.084 6.90295 59.8947 7.86631 59.5162 8.62457C59.1386 9.3648 58.7051 9.94934 58.2259 10.3819C57.7598 10.794 57.3132 11.0802 56.8844 11.2312C56.5543 11.3562 56.3436 11.8409 56.5114 12.1514L59.767 18.1162Z" fill="white"/>
<path d="M64.4922 18.5208V16.976C64.4922 16.7534 64.5806 16.54 64.7379 16.3827C64.8953 16.2253 65.1087 16.1369 65.3312 16.1369H76.583C76.8055 16.1369 77.0189 16.2253 77.1763 16.3827C77.3336 16.54 77.422 16.7534 77.422 16.976V18.5236C77.422 18.7461 77.3336 18.9595 77.1763 19.1169C77.0189 19.2742 76.8055 19.3626 76.583 19.3626H65.335C65.2242 19.3631 65.1145 19.3417 65.0121 19.2996C64.9097 19.2574 64.8166 19.1955 64.7383 19.1172C64.6599 19.0389 64.5978 18.9459 64.5556 18.8436C64.5134 18.7412 64.4918 18.6315 64.4922 18.5208ZM75.1445 8.05494C75.367 8.05494 75.5804 8.14334 75.7378 8.30069C75.8951 8.45805 75.9835 8.67146 75.9835 8.894V10.4416C75.9835 10.6641 75.8951 10.8775 75.7378 11.0349C75.5804 11.1922 75.367 11.2806 75.1445 11.2806H65.3368C65.1143 11.2806 64.9009 11.1922 64.7435 11.0349C64.5862 10.8775 64.4978 10.6641 64.4978 10.4416V8.89586C64.4978 8.67333 64.5862 8.45991 64.7435 8.30256C64.9009 8.1452 65.1143 8.0568 65.3368 8.0568L75.1445 8.05494ZM64.4922 0.839056C64.4922 0.616525 64.5806 0.403107 64.7379 0.245754C64.8953 0.0884003 65.1087 0 65.3312 0L76.583 0C76.8055 0 77.0189 0.0884003 77.1763 0.245754C77.3336 0.403107 77.422 0.616525 77.422 0.839056V2.38758C77.422 2.61011 77.3336 2.82353 77.1763 2.98088C77.0189 3.13824 76.8055 3.22664 76.583 3.22664H65.3331C65.1106 3.22664 64.8972 3.13824 64.7398 2.98088C64.5825 2.82353 64.4941 2.61011 64.4941 2.38758L64.4922 0.839056Z" fill="white"/>
<path d="M92.201 0.0149166C92.2009 0.0168299 92.2012 0.0187491 92.2018 0.0205548C92.2025 0.0223606 92.2035 0.0240143 92.2048 0.0254133C92.2061 0.0268122 92.2077 0.0279265 92.2095 0.0286869C92.2112 0.0294472 92.2131 0.0298374 92.215 0.0298331C93.1451 0.0697144 94.056 0.307449 94.887 0.727182C95.2372 0.915696 95.5666 1.14069 95.8696 1.39843C96.2102 1.67141 96.4991 2.00328 96.7226 2.37826C96.9976 2.81076 97.206 3.28218 97.3407 3.77668C97.5049 4.38206 97.5827 5.00758 97.5719 5.63473C97.5838 6.27022 97.506 6.90421 97.3407 7.51794C97.1995 8.01746 96.9916 8.49567 96.7226 8.93968C96.4959 9.31932 96.2076 9.65864 95.8696 9.94375C95.5685 10.2019 95.2399 10.426 94.8898 10.6122C94.0593 11.0517 93.14 11.2971 92.201 11.3301H86.5402C86.3177 11.3301 86.1043 11.4185 85.9469 11.5758C85.7896 11.7332 85.7012 11.9466 85.7012 12.1691V18.517C85.7012 18.7396 85.6128 18.953 85.4554 19.1103C85.2981 19.2677 85.0846 19.3561 84.8621 19.3561H83.3145C83.092 19.3561 82.8786 19.2677 82.7212 19.1103C82.5639 18.953 82.4755 18.7396 82.4755 18.517V8.92103C82.4755 8.6985 82.5639 8.48508 82.7212 8.32773C82.8786 8.17038 83.092 8.08197 83.3145 8.08197H91.968C91.9848 8.08197 92.1237 8.07358 92.38 8.0568C92.6629 8.01603 92.9346 7.91869 93.179 7.77059C93.4972 7.59425 93.7706 7.34703 93.978 7.04807C94.2176 6.71991 94.3388 6.2491 94.3388 5.62727C94.3388 5.02595 94.2092 4.56726 93.9528 4.26054C93.7442 3.96248 93.4711 3.71522 93.1538 3.53709C92.7882 3.34233 92.3821 3.236 91.968 3.22664H83.3117C83.0892 3.22664 82.8758 3.13824 82.7184 2.98088C82.5611 2.82353 82.4727 2.61011 82.4727 2.38758V0.839056C82.4727 0.616525 82.5611 0.403107 82.7184 0.245754C82.8758 0.0884003 83.0892 0 83.3117 0L92.188 0C92.1915 0.000632454 92.1948 0.00245466 92.1971 0.00516623C92.1995 0.0078778 92.2009 0.0113169 92.201 0.0149166Z" fill="white"/>
<path d="M115.033 18.5976C115.033 18.8201 114.945 19.0336 114.787 19.1909C114.63 19.3483 114.417 19.4367 114.194 19.4367H102.917C102.695 19.4367 102.481 19.3483 102.324 19.1909C102.167 19.0336 102.078 18.8201 102.078 18.5976V0.868353C102.078 0.645822 102.167 0.432404 102.324 0.275051C102.481 0.117697 102.695 0.0292969 102.917 0.0292969H104.46C104.683 0.0292969 104.896 0.117697 105.053 0.275051C105.211 0.432404 105.299 0.645822 105.299 0.868353V15.3728C105.299 15.5954 105.388 15.8088 105.545 15.9661C105.702 16.1235 105.916 16.2119 106.138 16.2119H114.249C114.457 16.2119 114.656 16.2943 114.803 16.4409C114.949 16.5876 115.032 16.7865 115.032 16.9941C115.032 17.6905 115.033 18.5976 115.033 18.5976Z" fill="white"/>
<path d="M142.818 10.1742C142.699 10.3223 142.633 10.5068 142.632 10.6972V18.5182C142.632 18.7407 142.544 18.9541 142.386 19.1115C142.229 19.2688 142.015 19.3572 141.793 19.3572H140.246C140.024 19.3572 139.81 19.2688 139.653 19.1115C139.496 18.9541 139.407 18.7407 139.407 18.5182V10.687C139.407 10.5034 139.347 10.3249 139.236 10.1789L132.54 1.35293C132.445 1.22843 132.386 1.07972 132.371 0.923666C132.356 0.767612 132.385 0.610454 132.455 0.470012C132.524 0.32957 132.632 0.211462 132.765 0.12908C132.899 0.046697 133.053 0.00333563 133.209 0.00391192H135.06C135.185 0.00421325 135.309 0.0325905 135.422 0.086959C135.535 0.141328 135.634 0.220306 135.713 0.318092L140.537 6.33319C140.617 6.43347 140.719 6.51404 140.835 6.56871C140.951 6.62337 141.079 6.65067 141.207 6.64851C141.335 6.64635 141.461 6.61479 141.575 6.55624C141.69 6.4977 141.789 6.41374 141.866 6.31082L146.332 0.344196C146.411 0.239438 146.512 0.154448 146.629 0.0960124C146.746 0.0375768 146.875 0.00731418 147.006 0.00764106H149.15C149.309 0.00589827 149.465 0.049033 149.599 0.132056C149.734 0.21508 149.843 0.334599 149.913 0.476791C149.983 0.618983 150.011 0.778037 149.994 0.935558C149.977 1.09308 149.916 1.24263 149.818 1.36691L142.818 10.1742Z" fill="white"/>
<path d="M132.489 8.84696L121.52 0.237316C121.363 0.113807 121.174 0.0370526 120.975 0.0158022C120.776 -0.0054483 120.575 0.0296603 120.395 0.117126C120.215 0.204591 120.063 0.340894 119.956 0.510495C119.85 0.680097 119.793 0.876173 119.793 1.07637V18.2957C119.793 18.496 119.849 18.6923 119.956 18.8622C120.062 19.032 120.214 19.1685 120.394 19.256C120.574 19.3435 120.776 19.3786 120.975 19.3571C121.174 19.3357 121.363 19.2586 121.52 19.1347L132.489 10.526C132.616 10.4261 132.719 10.2987 132.79 10.1532C132.86 10.0078 132.897 9.8482 132.897 9.68649C132.897 9.52478 132.86 9.36518 132.79 9.21975C132.719 9.07431 132.616 8.94684 132.489 8.84696Z" fill="white"/>
</g>
</g>
</g>
<defs>
<clipPath id="clip0_461_308076">
<rect width="150" height="19.44" fill="white"/>
</clipPath>
<clipPath id="clip1_461_308076">
<rect width="150" height="19.44" fill="white"/>
</clipPath>
<clipPath id="clip2_461_308076">
<rect width="149.997" height="19.44" fill="white"/>
</clipPath>
</defs>
</svg>